<svg width="32" height="32" viewBox="0 0 32 32" fill="none" xmlns="http://www.w3.org/2000/svg">
<path d="M0 16C0 7.16344 7.16344 0 16 0C24.8366 0 32 7.16344 32 16C32 24.8366 24.8366 32 16 32C7.16344 32 0 24.8366 0 16Z" fill="white"/>
<path d="M15.9999 11.7476C17.3019 11.7476 18.1801 12.3099 18.6808 12.7799L20.6376 10.8693C19.4358 9.7523 17.8719 9.06667 15.9999 9.06667C13.2882 9.06667 10.9463 10.6228 9.80615 12.8877L12.0479 14.6287C12.6103 12.957 14.1664 11.7476 15.9999 11.7476Z" fill="#EA4335"/>
<path d="M22.656 16.1541C22.656 15.584 22.6098 15.168 22.5096 14.7366H16V17.3096H19.821C19.744 17.949 19.328 18.912 18.4036 19.5591L20.5914 21.2539C21.901 20.0444 22.656 18.2649 22.656 16.1541Z" fill="#4285F4"/>
<path d="M12.0557 17.3713C11.9093 16.9399 11.8246 16.4776 11.8246 16C11.8246 15.5224 11.9093 15.0602 12.048 14.6287L9.80621 12.8877C9.33628 13.8276 9.06665 14.883 9.06665 16C9.06665 17.117 9.33628 18.1725 9.80621 19.1123L12.0557 17.3713Z" fill="#FBBC05"/>
<path d="M16 22.9333C17.872 22.9333 19.4436 22.317 20.5914 21.2539L18.4036 19.5591C17.8181 19.9674 17.0323 20.2524 16 20.2524C14.1666 20.2524 12.6104 19.043 12.0557 17.3713L9.81396 19.1123C10.9541 21.3772 13.2883 22.9333 16 22.9333Z" fill="#34A853"/>
</svg>
